# xmcd
#
# Track frame offsets: 
#        150
#        14803
#        27747
#        43480
#        59204
#        79095
#        97014
#        110230
#        127102
#        142059
#        155969
#        170916
#        186177
#        198067
#        215560
#
# Disc length: 3102 seconds
#
# Revision: 4
# Processed by: cddbd v1.5.2PL0 Copyright (c) Steve Scherf et al.
# Submitted via: ExactAudioCopy v0.99pb5
#
DISCID=000c1c0f
DTITLE=Various Artist - Classic Country - TL 626-27 - 1993 - 1996 - CD 2
DYEAR=2001
DGENRE=Country
TTITLE0=Mindy McCready - Guys do it all the time
TTITLE1=Shenandoah - If Bubba can dance
TTITLE2=Kevin Sharp - Nobody knows
TTITLE3=Jo Dee Messina - Heads Carolina, tails California
TTITLE4=Clay Walker - This woman and this man
TTITLE5=David Lee Murphy - Dust on the bottle
TTITLE6=Sammy Kershaw - She don't know she's beautiful
TTITLE7=Trisha Yearwood - Believe me baby (I lied)
TTITLE8=Aaron Tippin - That's as close as I'll get to loving you
TTITLE9=Ricochet - Daddy's money
TTITLE10=Rick Trevino - She can't say I didn't cry
TTITLE11=Randy Travis - Before you kill us all
TTITLE12=Neal McCoy - You gotta love that
TTITLE13=Diamond Rio - Walkin' away
TTITLE14=Joe Diffie - Prop me up beside the jukebox (if I die)
EXTD=
EXTT0=
EXTT1=
EXTT2=
EXTT3=
EXTT4=
EXTT5=
EXTT6=
EXTT7=
EXTT8=
EXTT9=
EXTT10=
EXTT11=
EXTT12=
EXTT13=
EXTT14=
PLAYORDER=
